<?xml version="1.0" standalone="no"?>
<!DOCTYPE svg PUBLIC "-//W3C//DTD SVG 20010904//EN"
 "http://www.w3.org/TR/2001/REC-SVG-20010904/DTD/svg10.dtd">
<svg version="1.0" xmlns="http://www.w3.org/2000/svg"
 width="1060.000000pt" height="1060.000000pt" viewBox="0 0 1060.000000 1060.000000"
 preserveAspectRatio="xMidYMid meet">
<metadata>
Created by potrace 1.11, written by Peter Selinger 2001-2013
</metadata>
<g transform="translate(0.000000,1060.000000) scale(0.100000,-0.100000)"
fill="#000000" stroke="none">
<path d="M5233 10589 c-52 -9 -52 -10 -368 -192 -303 -174 -270 -156 -500
-287 -99 -56 -200 -114 -225 -128 -25 -14 -62 -36 -82 -49 -21 -12 -40 -23
-42 -23 -2 0 -75 -41 -163 -91 -289 -167 -670 -388 -704 -408 -19 -12 -41 -24
-49 -28 -8 -4 -71 -40 -140 -81 -69 -41 -143 -84 -165 -97 -22 -12 -173 -100
-335 -195 -162 -95 -315 -184 -340 -199 -25 -14 -69 -39 -98 -56 -29 -16 -52
-32 -52 -35 1 -5 82 -53 229 -136 31 -18 166 -95 299 -173 134 -77 248 -141
253 -141 5 0 9 -4 9 -10 0 -5 5 -10 10 -10 6 0 121 -65 258 -144 136 -79 263
-153 282 -163 19 -11 222 -128 450 -260 228 -132 456 -264 505 -292 50 -29 97
-56 105 -61 257 -150 411 -240 444 -258 22 -13 114 -66 203 -118 180 -105 221
-122 275 -118 60 5 63 7 418 212 19 11 109 63 199 114 91 51 185 105 210 119
87 49 116 66 271 154 85 49 337 194 560 323 223 129 423 245 445 257 22 13
166 96 320 185 154 90 294 170 310 180 82 47 212 122 225 131 8 5 88 51 178
103 l163 94 -28 20 c-27 19 -101 64 -173 105 -19 11 -150 86 -290 167 -140 81
-271 157 -290 167 -19 11 -75 44 -125 73 -49 29 -110 64 -135 78 -25 14 -173
99 -330 190 -157 91 -298 173 -315 182 -96 55 -506 293 -654 379 -96 55 -178
101 -182 101 -5 0 -9 4 -9 9 0 5 -8 11 -17 14 -10 4 -36 17 -58 30 -44 26
-512 299 -560 327 -67 38 -127 50 -192 39z m210 -489 c128 -34 175 -57 462
-235 192 -119 634 -381 806 -477 24 -14 62 -35 84 -48 22 -12 216 -122 430
-245 215 -122 424 -240 465 -263 70 -38 140 -95 140 -113 0 -4 -30 -26 -67
-48 -89 -52 -1015 -586 -1073 -619 -25 -14 -124 -71 -220 -127 -96 -56 -202
-117 -235 -136 -33 -19 -68 -38 -78 -44 -9 -5 -90 -52 -180 -104 -89 -52 -175
-102 -192 -111 -16 -10 -113 -66 -214 -124 -221 -129 -243 -138 -290 -130 -45
8 -39 5 -271 139 -107 62 -278 161 -380 219 -102 59 -192 111 -200 116 -35 21
-177 104 -209 122 -36 21 -1274 735 -1409 814 l-74 42 44 25 c115 66 410 233
468 264 36 20 70 39 75 43 6 4 35 21 65 37 68 37 388 218 615 348 94 53 289
169 435 256 323 195 293 177 360 220 224 145 372 200 528 193 40 -2 91 -8 115
-14z"/>
<path d="M5253 9589 c-36 -7 -84 -28 -133 -59 -23 -14 -271 -160 -310 -183
-49 -27 -565 -334 -620 -367 -25 -16 -61 -37 -80 -48 -19 -11 -84 -49 -145
-85 -60 -36 -146 -86 -190 -111 -136 -76 -134 -64 -20 -138 148 -95 188 -112
265 -112 78 0 117 17 322 135 177 101 230 133 548 330 141 87 278 166 305 176
34 13 69 18 108 16 56 -3 146 -33 178 -60 8 -7 18 -13 21 -13 3 0 43 -22 89
-48 46 -27 147 -81 224 -122 287 -150 278 -145 480 -279 145 -97 189 -119 249
-128 132 -21 231 19 385 154 l33 30 -68 40 c-68 40 -388 221 -699 396 -88 49
-270 153 -405 230 -463 265 -453 261 -537 246z"/>
<path d="M2543 7955 c-29 -13 -83 -42 -120 -63 -38 -22 -88 -50 -113 -64 -214
-118 -382 -223 -369 -230 8 -5 131 -76 274 -158 143 -82 267 -154 275 -160 8
-6 22 -13 30 -17 8 -4 32 -17 53 -31 22 -13 59 -34 83 -48 23 -13 141 -81 261
-151 120 -69 232 -134 248 -143 17 -10 86 -50 155 -90 69 -40 141 -81 160 -92
19 -11 64 -37 100 -58 36 -21 81 -47 100 -58 19 -10 113 -65 209 -121 96 -56
195 -114 220 -128 25 -14 87 -49 136 -78 167 -99 440 -257 485 -283 25 -14
101 -58 168 -99 68 -40 125 -73 127 -73 2 0 34 -19 71 -42 86 -52 139 -69 177
-56 15 6 128 69 250 140 122 72 238 140 257 151 19 10 76 43 125 72 50 29 106
62 125 73 46 26 413 239 675 392 116 67 226 131 245 142 30 18 464 270 560
326 19 12 62 36 95 55 33 19 98 57 145 84 47 28 148 87 225 132 77 44 147 85
155 91 8 5 40 23 70 41 88 50 293 170 319 187 l25 15 -40 20 c-21 11 -40 24
-42 28 -2 5 -8 9 -12 9 -5 0 -66 35 -137 78 -116 72 -195 118 -338 197 -75 41
-156 45 -230 12 -62 -29 -171 -133 -181 -173 -8 -31 5 -46 80 -96 60 -40 91
-72 91 -95 0 -10 -330 -206 -760 -453 -97 -56 -222 -128 -253 -148 -20 -12
-44 -25 -52 -29 -8 -4 -231 -133 -495 -286 -264 -154 -496 -288 -515 -299 -19
-11 -87 -51 -150 -88 -63 -37 -133 -78 -155 -91 -31 -18 -55 -23 -110 -23 -72
0 -95 8 -230 87 -22 13 -65 37 -95 54 -62 34 -62 34 -395 221 -132 74 -244
138 -250 142 -5 4 -28 18 -50 30 -22 12 -93 54 -158 94 -65 39 -125 76 -135
81 -9 6 -66 40 -127 76 -60 36 -229 132 -375 214 -146 81 -282 159 -302 172
-21 12 -40 23 -43 23 -3 0 -18 8 -33 18 -15 11 -47 32 -72 47 -90 58 -230 158
-230 166 0 19 55 70 106 98 59 34 78 63 62 96 -6 11 -40 49 -77 85 -104 100
-195 124 -298 75z"/>
<path d="M1797 7126 c3 -413 6 -464 31 -512 12 -23 36 -54 54 -69 77 -65 249
-113 283 -79 18 19 17 12 19 105 1 53 7 84 19 102 l17 27 58 -26 c92 -40 306
-155 449 -240 73 -44 224 -134 335 -200 186 -111 287 -169 453 -259 33 -18
101 -56 150 -85 50 -29 110 -64 134 -78 25 -13 198 -117 385 -230 188 -112
386 -229 441 -260 131 -72 186 -114 221 -166 18 -29 19 -75 20 -2165 1 -1175
2 -2139 3 -2142 2 -13 276 -156 661 -346 591 -291 873 -435 972 -497 9 -5 21
-7 25 -2 4 4 8 83 8 174 0 246 -1 247 -325 441 -19 11 -42 24 -50 28 -8 4 -35
19 -61 33 -74 44 -127 73 -412 226 -340 184 -353 193 -396 274 -31 60 -34 88
-36 350 -18 2090 -21 3117 -9 3430 8 219 7 231 -17 338 -26 119 -95 190 -259
270 -63 31 -216 114 -340 185 -124 71 -238 137 -255 147 -74 42 -543 315 -570
331 -16 11 -37 22 -45 26 -8 4 -49 27 -90 51 -103 61 -474 279 -513 301 -18
10 -90 53 -162 96 -71 43 -146 86 -165 97 -19 11 -123 72 -230 136 -228 134
-431 253 -585 343 -60 35 -117 69 -126 74 -9 6 -34 20 -55 31 l-39 22 2 -282z"/>
<path d="M884 5043 c1 -1864 1 -1888 21 -1918 11 -16 33 -42 50 -57 24 -22
353 -219 614 -369 26 -14 118 -69 206 -121 171 -101 441 -259 515 -300 25 -14
128 -74 230 -133 340 -197 445 -258 475 -275 35 -20 601 -346 895 -515 290
-168 290 -168 297 -162 3 4 6 847 6 1874 0 2094 7 1904 -74 1983 -39 38 -158
110 -440 269 -36 21 -848 495 -909 532 -50 30 -836 482 -880 507 -25 13 -70
39 -100 57 -30 18 -73 43 -94 55 -21 12 -116 66 -211 120 -95 54 -187 107
-206 118 -19 10 -114 65 -212 121 -98 55 -179 101 -181 101 -1 0 -2 -849 -2
-1887z m508 1156 c43 -27 80 -49 82 -49 3 0 74 -41 158 -91 274 -164 460 -274
638 -379 96 -57 219 -129 273 -161 54 -33 100 -59 102 -59 2 0 28 -14 57 -31
118 -70 428 -242 583 -324 219 -115 297 -166 376 -244 55 -56 86 -97 112 -151
70 -142 72 -164 68 -535 -4 -391 -5 -1559 -1 -1970 3 -249 1 -295 -13 -328
l-16 -38 -38 25 c-21 13 -216 127 -433 252 -217 125 -503 290 -634 366 -132
76 -241 138 -244 138 -3 0 -13 6 -21 14 -9 7 -41 27 -71 43 -64 35 -61 33
-345 198 -121 70 -229 133 -240 139 -72 40 -443 259 -456 269 -9 6 -24 28 -34
47 -18 34 -19 95 -19 1482 -1 1441 -1 1448 19 1441 11 -3 55 -28 97 -54z"/>
<path d="M1699 5507 c-2 -5 -21 -1726 -19 -1788 2 -96 38 -155 130 -214 19
-12 298 -176 620 -365 322 -189 651 -382 733 -431 81 -48 148 -85 149 -81 5
23 8 71 12 182 6 165 -9 214 -87 285 -62 57 -330 220 -747 453 -157 88 -305
177 -329 198 -26 22 -55 61 -70 93 -25 54 -26 64 -28 251 -8 651 -6 758 12
910 33 261 -59 400 -322 491 -29 10 -53 17 -54 16z"/>
<path d="M9576 6785 c-83 -47 -151 -85 -152 -85 -1 0 -88 -49 -192 -109 -105
-60 -214 -123 -244 -139 -29 -17 -104 -60 -167 -96 -62 -36 -115 -66 -116 -66
-2 0 -76 -43 -165 -95 -89 -52 -163 -95 -165 -95 -1 0 -52 -29 -113 -64 -61
-36 -131 -76 -154 -89 -24 -14 -137 -80 -253 -147 -115 -67 -225 -131 -242
-141 -63 -36 -99 -57 -218 -126 -66 -39 -289 -168 -495 -287 -414 -239 -448
-264 -474 -357 -13 -47 -14 -289 -12 -1896 1 -1013 5 -1845 8 -1848 3 -3 140
72 304 166 164 95 313 180 330 189 16 10 88 51 160 92 71 41 266 154 434 250
168 97 321 185 340 196 19 11 87 50 150 86 63 37 135 78 160 92 25 15 74 43
110 64 36 20 106 61 155 90 50 29 104 60 120 70 17 9 206 119 420 245 215 125
421 246 460 268 74 43 123 86 146 127 12 21 14 318 15 1908 0 1035 0 1882 0
1882 -1 0 -68 -38 -150 -85z m-246 -597 c1 -7 1 -655 2 -1441 1 -1627 9 -1478
-88 -1542 -29 -19 -55 -35 -59 -35 -3 0 -31 -16 -61 -35 -30 -19 -56 -35 -58
-35 -1 0 -70 -39 -152 -86 -82 -48 -165 -96 -184 -106 -19 -11 -123 -71 -230
-133 -107 -62 -269 -155 -360 -207 -815 -469 -998 -575 -1153 -665 -98 -56
-183 -103 -188 -103 -27 0 -31 67 -29 530 4 910 3 1367 -4 1620 -4 140 -8 284
-8 320 -5 340 117 540 432 707 41 22 120 64 175 93 326 173 755 420 1595 918
195 116 358 211 363 212 4 0 7 -6 7 -12z"/>
</g>
</svg>
